<svg id="레이어_1" data-name="레이어 1" xmlns="http://www.w3.org/2000/svg" viewBox="0 0 300 300"><defs><style>.cls-1{fill:#fff;}.cls-2{fill:#f5a623;}</style></defs><title>about</title><rect class="cls-1" width="300" height="300"/><path class="cls-2" d="M242.56,176.56a12.06,12.06,0,0,1-2.33-.23l-1-.19A25.33,25.33,0,0,1,229,172.21c-5.93-3.75-11.73-7.78-17.34-11.68q-3.39-2.35-6.81-4.71a4.25,4.25,0,0,1-.49-6.62c9.59-8.92,15.31-16.71,14.23-28a4.25,4.25,0,0,1,2.58-4.32c1.69-.71,3.72-1.43,5.87-2.18a72.49,72.49,0,0,0,8.4-3.31,121.07,121.07,0,0,0,15.29-9.51c2-1.37,4.17-2.92,6.78-4.67,4.58-3.06,7.87-4.74,10.36-5.28A10.34,10.34,0,0,1,276,93.8a11.09,11.09,0,0,1,4.71,7.6c.65,5.34-.81,10.52-4.47,15.85-5.23,7.62-17.24,13.74-26,18.21l-2.53,1.29a5,5,0,0,1-.45.25,4.26,4.26,0,1,1-4-7.51l.09,0,3-1.56c7.51-3.82,18.86-9.6,22.87-15.44,2.47-3.6,3.43-6.78,3-10a2.83,2.83,0,0,0-1.19-1.69,2,2,0,0,0-1.39-.46c-.62.14-2.59.8-7.45,4-2.53,1.69-4.62,3.15-6.63,4.56A129.7,129.7,0,0,1,239.34,119a77.63,77.63,0,0,1-9.51,3.79l-2.64.94c.06,11.81-5.93,20.55-13.29,28.07l2.58,1.79c5.79,4,11.26,7.82,17,11.44a17.24,17.24,0,0,0,7.2,2.77l1.21.22a2.35,2.35,0,0,0,2.83-1.3,4.25,4.25,0,1,1,7.77,3.44A10.68,10.68,0,0,1,242.56,176.56Z"/><path class="cls-2" d="M245.71,158.51a59.07,59.07,0,0,1-6.08-.33c-1.81-.19-6.64-1-7.19-1.06a4.25,4.25,0,0,1,1.37-8.39c1.41.23,5.37.86,6.7,1,7.29.75,12.94,0,17.78-2.34,2.84-1.38,4.55-2.85,5.52-4.76.84-1.64.35-2.29-.84-2.91a4.25,4.25,0,0,1,3.93-7.54c5.57,2.91,7.37,8.66,4.47,14.32A19.58,19.58,0,0,1,262,155,36.35,36.35,0,0,1,245.71,158.51Z"/><path class="cls-2" d="M57.44,176.56a10.68,10.68,0,0,1-9.92-6.43,4.25,4.25,0,0,1,7.77-3.44,2.35,2.35,0,0,0,2.83,1.3l1.2-.22A17.17,17.17,0,0,0,66.59,165c5.67-3.58,11.14-7.38,16.93-11.41l2.58-1.79c-7.36-7.51-13.35-16.26-13.29-28.07l-2.64-.94A77.56,77.56,0,0,1,60.66,119a129.69,129.69,0,0,1-16.23-10.09c-2-1.41-4.1-2.87-6.63-4.56-4.85-3.24-6.83-3.91-7.45-4a2,2,0,0,0-1.39.46,2.83,2.83,0,0,0-1.19,1.69c-.39,3.24.57,6.42,3,10,4,5.84,15.35,11.61,22.87,15.44l3,1.56.1.05a4.26,4.26,0,1,1-4,7.51l-.45-.25-2.53-1.29C41,131,29,124.87,23.8,117.25c-3.65-5.33-5.11-10.51-4.47-15.85A11.09,11.09,0,0,1,24,93.8,10.34,10.34,0,0,1,32.16,92c2.48.54,5.78,2.22,10.36,5.28,2.61,1.74,4.83,3.3,6.78,4.67a121.16,121.16,0,0,0,15.29,9.51,72.5,72.5,0,0,0,8.4,3.31c2.15.76,4.18,1.47,5.87,2.18a4.25,4.25,0,0,1,2.58,4.32c-1.08,11.26,4.64,19,14.23,28a4.25,4.25,0,0,1-.49,6.62q-3.43,2.35-6.81,4.71c-5.61,3.9-11.42,7.93-17.29,11.65a25.43,25.43,0,0,1-10.27,4l-1,.19A12.06,12.06,0,0,1,57.44,176.56Z"/><path class="cls-2" d="M54.29,158.51A36.35,36.35,0,0,1,38,155a19.58,19.58,0,0,1-9.38-8.54c-2.89-5.66-1.1-11.41,4.47-14.32A4.25,4.25,0,1,1,37,139.71c-1.19.62-1.68,1.27-.84,2.91,1,1.91,2.68,3.38,5.52,4.76,4.85,2.35,10.5,3.09,17.78,2.34,1.33-.14,5.28-.76,6.7-1a4.25,4.25,0,1,1,1.37,8.39c-.54.09-5.38.87-7.19,1.06A59.07,59.07,0,0,1,54.29,158.51Z"/><path class="cls-2" d="M115.42,104.61h77.91a4.88,4.88,0,0,1,4.88,4.88V225.12a4.88,4.88,0,0,1-4.88,4.88H115.42a1.24,1.24,0,0,0-.23-.06,14.39,14.39,0,0,1-12.56-10.4c-.27-.95-.39-1.93-.58-2.9,0-29.55,0-69.11,0-98.66a2.58,2.58,0,0,0,.07-.32,14.39,14.39,0,0,1,10.39-12.47C113.46,104.92,114.45,104.8,115.42,104.61Zm-3.75,97.32a1.46,1.46,0,0,0,.23,0,15.58,15.58,0,0,1,5-.75h71.65V114.22H162.62q-22.83,0-45.67,0a6.71,6.71,0,0,0-2,.26,4.79,4.79,0,0,0-3.29,4.93c0,24,0,58,0,82Zm76.91,8.84H116.22a4.81,4.81,0,1,0,.6,9.6h71.75Z"/><rect class="cls-2" x="125.48" y="129.26" width="49.31" height="9.86"/></svg>