<svg id="레이어_1" data-name="레이어 1" xmlns="http://www.w3.org/2000/svg" viewBox="0 0 300 300"><defs><style>.cls-1{fill:#fff;}.cls-2{fill:#f5a623;}</style></defs><title>about</title><rect class="cls-1" width="300" height="300"/><path class="cls-2" d="M150.07,223.87a4.77,4.77,0,0,1-3.37-1.39l-21.3-21.26c-19.28-20-27.85-35.59-27.87-50.68,0-29.34,23.49-53.23,52.42-53.26s52.5,23.82,52.53,53.16c0,15.58-8.66,31.23-28.14,50.74l-20.87,21.27a4.77,4.77,0,0,1-3.38,1.43ZM150,106.81c-23.67,0-42.91,19.63-42.89,43.71,0,12.43,7.76,26,25.13,44L150,212.32l17.53-17.87c17.57-17.61,25.39-31.17,25.38-44C192.9,126.35,173.63,106.79,150,106.81Z"/><path class="cls-2" d="M150,179.71a31,31,0,1,1,31-31A31,31,0,0,1,150,179.71ZM150,127.23a21.47,21.47,0,1,0,21.49,21.45A21.49,21.49,0,0,0,150,127.23Z"/><path class="cls-2" d="M149.93,84.33a4.77,4.77,0,0,1-4.78-4.77l0-22.66a4.77,4.77,0,1,1,9.54,0l0,22.66A4.77,4.77,0,0,1,149.93,84.33Z"/><path class="cls-2" d="M101,104.64a4.76,4.76,0,0,1-3.37-1.39l-16-16a4.77,4.77,0,1,1,6.74-6.75l16,16a4.77,4.77,0,0,1-3.36,8.15Z"/><path class="cls-2" d="M80.83,153.57l-22.66,0a4.77,4.77,0,1,1,0-9.54l22.66,0a4.77,4.77,0,1,1,0,9.54Z"/><path class="cls-2" d="M241.83,153.41l-22.66,0a4.77,4.77,0,1,1,0-9.54l22.66,0a4.77,4.77,0,0,1,0,9.54Z"/><path class="cls-2" d="M173,249.27l-46.66.46a4.77,4.77,0,1,1-.09-9.54l46.66-.46a4.77,4.77,0,1,1,.09,9.54Z"/><path class="cls-2" d="M198.86,104.54a4.77,4.77,0,0,1-3.38-8.14l16-16a4.77,4.77,0,1,1,6.75,6.74l-16,16A4.75,4.75,0,0,1,198.86,104.54Z"/></svg>