<svg id="레이어_1" data-name="레이어 1" xmlns="http://www.w3.org/2000/svg" viewBox="0 0 300 300"><defs><style>.cls-1{fill:#fff;}.cls-2{fill:#f5a623;}</style></defs><title>about</title><rect class="cls-1" width="300" height="300"/><path class="cls-2" d="M75.47,193.7A4.77,4.77,0,0,1,74.32,185l146.59-84.18a4.77,4.77,0,0,1,4.77,8.26L79.09,193.22A4.75,4.75,0,0,1,75.47,193.7Z"/><path class="cls-2" d="M120.12,149.2l7.77-4.49c-6.45-5-11-11.3-11-20.7,0-16.17,9-27.24,24.56-30.39a4.25,4.25,0,0,0,3.41-4.17V79.88a5.15,5.15,0,0,1,10.31,0v9.24a4.25,4.25,0,0,0,3.62,4.2,38.56,38.56,0,0,1,16.11,6.24,6.81,6.81,0,0,1,3,4.81,7,7,0,0,1-10.58,7,28.08,28.08,0,0,0-14.47-4c-14.27,0-17.27,8.34-17.27,15.34,0,5.57,3.48,9.44,8.47,12.7l8.47-4.89c-4.82-2.53-8.44-5.06-8.44-7.81,0-3.88.65-6.84,8.77-6.84A19.54,19.54,0,0,1,163,118.7a15.58,15.58,0,0,0,19.63-3.22h0a15.57,15.57,0,0,0,3.64-12.24,15.4,15.4,0,0,0-6.66-10.73,46.62,46.62,0,0,0-16-6.91V79.88a13.65,13.65,0,0,0-27.31,0V86.1c-17.59,4.89-28,18.83-28,37.91C108.34,135.27,113.39,143.2,120.12,149.2Z"/><path class="cls-2" d="M179.31,145.67l-7.93,4.58c7.07,5.11,12.35,11.92,12.35,22.47,0,16.77-9,28-25.27,31.53a4.25,4.25,0,0,0-3.34,4.15v9.72a5.15,5.15,0,0,1-10.31,0v-8.76a4.25,4.25,0,0,0-3.75-4.22,61.93,61.93,0,0,1-21.22-6.77,6.75,6.75,0,0,1-3.36-4.33,7.1,7.1,0,0,1,.92-5.61l.45-.7a7.08,7.08,0,0,1,9.31-2.29,39.23,39.23,0,0,0,19.17,5.34c15.34,0,18.56-8.69,18.56-16,0-6.55-4.33-11-10.33-14.85l-8.47,4.89c5.79,3.16,10.3,6.33,10.3,10,0,3.94-.77,7.48-10.06,7.48-5,0-9.76-1.36-15.08-4.29a15.61,15.61,0,0,0-20.54,5.11l-.45.7a15.62,15.62,0,0,0-2,12.34,15.37,15.37,0,0,0,7.56,9.71,70.26,70.26,0,0,0,20.5,7.16v5.1a13.65,13.65,0,0,0,27.31,0V211.7c18-5.24,28.61-19.59,28.61-39C192.23,160.21,186.65,151.8,179.31,145.67Z"/></svg>