<svg xmlns="http://www.w3.org/2000/svg" width="36" height="36" viewBox="0 0 36 36">
    <path fill="#FEFEFE" fill-rule="evenodd" d="M26.051 24.135c0 1.058-.86 1.917-1.917 1.917h-12.27a1.918 1.918 0 0 1-1.916-1.917V15.948h2.985a5.42 5.42 0 0 0-.402 2.051 5.476 5.476 0 0 0 5.47 5.47 5.475 5.475 0 0 0 5.468-5.47 5.529 5.529 0 0 0-.404-2.051h2.986V24.135zm-10.905-8.187A3.518 3.518 0 0 1 18 14.481a3.517 3.517 0 0 1 3.066 1.803c.287.508.455 1.093.455 1.715 0 1.941-1.581 3.52-3.52 3.52a3.524 3.524 0 0 1-3.522-3.52c0-.623.168-1.207.455-1.716.066-.115.135-.228.212-.335zm10.098-5.642l.441-.003v3.39l-3.378.01-.011-3.388 2.948-.01zM24.134 8h-12.27A3.868 3.868 0 0 0 8 11.864v12.271A3.869 3.869 0 0 0 11.864 28h12.27A3.87 3.87 0 0 0 28 24.135V11.864A3.87 3.87 0 0 0 24.134 8z"/>
</svg>
