<svg xmlns="http://www.w3.org/2000/svg" width="125" height="34" viewBox="0 0 125 34">
    <g fill="#FFF" fill-rule="evenodd">
        <path d="M26.056 33.389h-5.869c-1.191 0-1.788-.453-2.484-1.502l-5.372-8.038c-.446-.598-.547-1.148-.547-2.546v-3.995c0-.897.3-1.449 1.443-1.449h.995c2.436 0 4.723-1.697 4.723-4.045 0-2.595-1.99-4.243-4.574-4.243H7.756v24.37c0 1.145-.547 1.448-1.44 1.448H1.393C.497 33.389 0 33.086 0 31.94V2.026C0 1.13.249.578 1.393.578h12.53c5.42 0 7.806 1.098 9.895 3.196 1.84 1.799 2.884 4.646 2.884 7.84 0 5.246-3.828 8.89-6.912 9.939l7.013 10.237c.447.699.198 1.599-.747 1.599M55.788 27.843v4.098c0 .896-.3 1.448-1.443 1.448H32.068c-1.144 0-1.442-.552-1.442-1.448V1.979c0-.898.298-1.45 1.442-1.45H53.5c1.142 0 1.44.552 1.44 1.45v4.142c0 .898-.298 1.45-1.44 1.45H38.483v5.443H51.81c1.144 0 1.442.549 1.442 1.447v3.896c0 .898-.298 1.447-1.442 1.447H38.483v6.592h15.862c1.144 0 1.443.549 1.443 1.447M124.545 11.765v10.387c0 7.841-7.46 11.237-13.378 11.237h-11.138c-1.144 0-1.441-.552-1.441-1.45V1.98c0-.9.297-1.45 1.441-1.45h11.138c5.918 0 13.378 3.446 13.378 11.236m-7.808.696c0-3.143-2.286-4.992-5.57-4.992h-4.773v18.978h4.773c3.284 0 5.57-1.799 5.57-4.992V12.46M84.374 10.778l8.193 21.71s.34 1.113-1.108 1.113H75.99c-1.55 0-1.02-1.113-1.02-1.113s7.992-21.13 8.213-21.71c.222-.58.965-.606 1.192 0M70.264 23.398c-.23-.602-8.195-21.712-8.195-21.712s-.34-1.108 1.11-1.108h15.469c1.55 0 1.019 1.108 1.019 1.108s-7.994 21.133-8.215 21.712c-.22.58-.962.603-1.188 0"/>
    </g>
</svg>
